<?xml version="1.0" encoding="UTF-8" standalone="no"?>
<svg
   xmlns:dc="http://purl.org/dc/elements/1.1/"
   xmlns:cc="http://creativecommons.org/ns#"
   xmlns:rdf="http://www.w3.org/1999/02/22-rdf-syntax-ns#"
   xmlns:svg="http://www.w3.org/2000/svg"
   xmlns="http://www.w3.org/2000/svg"
   xmlns:sodipodi="http://sodipodi.sourceforge.net/DTD/sodipodi-0.dtd"
   xmlns:inkscape="http://www.inkscape.org/namespaces/inkscape"
   viewBox="0 0 86 86.010216"
   id="svg2"
   version="1.1"
   inkscape:version="0.91 r13725"
   sodipodi:docname="google-chrome.svg"
   width="86"
   height="86.010216">
  <metadata
     id="metadata34">
    <rdf:RDF>
      <cc:Work
         rdf:about="">
        <dc:format>image/svg+xml</dc:format>
        <dc:type
           rdf:resource="http://purl.org/dc/dcmitype/StillImage" />
        <dc:title></dc:title>
      </cc:Work>
    </rdf:RDF>
  </metadata>
  <defs
     id="defs32" />
  <sodipodi:namedview
     pagecolor="#ffffff"
     bordercolor="#666666"
     borderopacity="1"
     objecttolerance="10"
     gridtolerance="10"
     guidetolerance="10"
     inkscape:pageopacity="0"
     inkscape:pageshadow="2"
     inkscape:window-width="1600"
     inkscape:window-height="837"
     id="namedview30"
     showgrid="false"
     fit-margin-top="3"
     fit-margin-left="3"
     fit-margin-right="3"
     fit-margin-bottom="3"
     inkscape:zoom="4.9166667"
     inkscape:cx="61.694915"
     inkscape:cy="15.101696"
     inkscape:window-x="0"
     inkscape:window-y="32"
     inkscape:window-maximized="1"
     inkscape:current-layer="svg2" />
  <g
     id="g3362"
     transform="matrix(1.7022001,0,0,1.7022001,1.2977999,1.3046087)">
    <g
       id="g4">
      <path
         id="path6"
         style="opacity:0.05"
         d="m 36.31,5 c 5.859,4.062 9.688,10.831 9.688,18.5 0,12.426 -10.07,22.5 -22.5,22.5 -7.669,0 -14.438,-3.828 -18.5,-9.688 1.037,1.822 2.306,3.499 3.781,4.969 4.085,3.712 9.514,5.969 15.469,5.969 12.703,0 23,-10.298 23,-23 0,-5.954 -2.256,-11.384 -5.969,-15.469 C 39.81,7.306 38.132,6.037 36.31,5 Z m 4.969,3.781 c 3.854,4.113 6.219,9.637 6.219,15.719 0,12.703 -10.297,23 -23,23 -6.081,0 -11.606,-2.364 -15.719,-6.219 4.16,4.144 9.883,6.719 16.219,6.719 12.703,0 23,-10.298 23,-23 0,-6.335 -2.575,-12.06 -6.719,-16.219 z"
         inkscape:connector-curvature="0" />
      <path
         id="path8"
         style="opacity:0.1"
         d="m 41.28,8.781 c 3.712,4.085 5.969,9.514 5.969,15.469 0,12.703 -10.297,23 -23,23 -5.954,0 -11.384,-2.256 -15.469,-5.969 4.113,3.854 9.637,6.219 15.719,6.219 12.703,0 23,-10.298 23,-23 0,-6.081 -2.364,-11.606 -6.219,-15.719 z"
         inkscape:connector-curvature="0" />
      <path
         id="path10"
         style="opacity:0.2"
         d="M 31.25,2.375 C 39.865,5.529 46,13.792 46,23.505 c 0,12.426 -10.07,22.5 -22.5,22.5 -9.708,0 -17.971,-6.135 -21.12,-14.75 a 23,23 0 0 0 44.875,-7 23,23 0 0 0 -16,-21.875 z"
         inkscape:connector-curvature="0" />
    </g>
    <path
       id="path12"
       style="fill:#e9a903;fill-opacity:1;fill-rule:nonzero;stroke:none"
       d="m 29.563,16.998 c 1.027,0.824 1.973,1.898 2.563,3.094 -4.9,12.333 0,0 -4.9,12.333 -0.879,0.371 -1.365,0.493 -2.358,0.575 l -7.711,12.969 c 2.161,0.672 4.462,1.031 6.844,1.031 12.703,0 23,-10.297 23,-23 0,-2.441 -0.389,-4.793 -1.094,-7 z"
       inkscape:connector-curvature="0" />
    <path
       id="path14"
       style="fill:#0f9355;fill-opacity:1;fill-rule:nonzero;stroke:none"
       d="M 8.281,7.219 C 3.803,11.416 1,17.379 1,24 1,34.961 8.674,44.13 18.938,46.438 L 27.251,32.408 15.07,22.907 c 0.167,-1.309 0.207,-2.648 0.257,-3.42 L 8.282,7.223"
       inkscape:connector-curvature="0" />
    <path
       id="path16"
       style="fill:#d74336;fill-opacity:1;fill-rule:nonzero;stroke:none"
       d="m 24,0.998 c -6.764,0 -12.854,2.915 -17.06,7.563 l 8.14,14.09 16.4,-3.624 14.957,-0.031 C 44.15,8.703 34.981,0.996 23.999,0.996"
       inkscape:connector-curvature="0" />
    <g
       id="g18">
      <path
         id="path20"
         style="opacity:0.1"
         d="m 40.03,7.531 c 3.712,4.084 5.969,9.514 5.969,15.469 0,12.703 -10.297,23 -23,23 C 17.045,46 11.615,43.744 7.53,40.031 11.708,44.322 17.54,47 23.999,47 c 12.703,0 23,-10.298 23,-23 0,-6.462 -2.677,-12.291 -6.969,-16.469 z"
         inkscape:connector-curvature="0" />
    </g>
    <path
       id="path22"
       style="fill:#f9f9f9;fill-opacity:1;fill-rule:nonzero;stroke:none"
       d="m 33,24 c 0,4.973 -4.03,9 -9,9 -4.969,0 -9,-4.03 -9,-9 0,-4.969 4.03,-9 9,-9 4.973,0 9,4.03 9,9 m 0,0"
       inkscape:connector-curvature="0" />
    <path
       id="path24"
       style="fill:#000000;fill-opacity:0.09800002;fill-rule:nonzero;stroke:none"
       d="m 32,25 c 0,3.867 -3.133,7 -7,7 -3.867,0 -7,-3.133 -7,-7 0,-3.867 3.133,-7 7,-7 3.867,0 7,3.133 7,7 m 0,0"
       inkscape:connector-curvature="0" />
    <path
       id="path26"
       style="fill:#000000;fill-opacity:0.09800002;fill-rule:nonzero;stroke:none"
       d="m 24,15 c -4.97,0 -9,4.03 -9,9 0,2.701 1.196,5.118 3.08,6.768 -0.082,-0.098 -0.163,-0.199 -0.24,-0.301 -0.703,-0.934 -1.234,-2.02 -1.531,-3.125 -0.612,-2.722 0.002,-5.192 1.25,-7.346 0.738,-1.102 1.738,-2.043 2.969,-2.75 2.186,-1.182 4.604,-1.494 6.844,-0.906 1.113,0.301 2.162,0.797 3.096,1.5 0.105,0.101 0.224,0.185 0.336,0.278 -1.65,-1.906 -4.082,-3.117 -6.803,-3.117 z"
       inkscape:connector-curvature="0" />
    <path
       id="path28"
       style="fill:#3d7de5;fill-opacity:1;fill-rule:nonzero;stroke:none"
       d="m 31,23.998 c 0,3.867 -3.133,7 -7,7 -3.867,0 -7,-3.133 -7,-7 0,-3.867 3.133,-7 7,-7 3.867,0 7,3.133 7,7 m 0,0"
       inkscape:connector-curvature="0" />
  </g>
</svg>
