<?xml version="1.0" encoding="UTF-8" standalone="no"?>
<svg
   xmlns:dc="http://purl.org/dc/elements/1.1/"
   xmlns:cc="http://creativecommons.org/ns#"
   xmlns:rdf="http://www.w3.org/1999/02/22-rdf-syntax-ns#"
   xmlns:svg="http://www.w3.org/2000/svg"
   xmlns="http://www.w3.org/2000/svg"
   width="90"
   height="90.009972"
   viewBox="0 0 90.000002 90.009972"
   id="svg2"
   version="1.1">
  <defs
     id="defs4" />
  <metadata
     id="metadata7">
    <rdf:RDF>
      <cc:Work
         rdf:about="">
        <dc:format>image/svg+xml</dc:format>
        <dc:type
           rdf:resource="http://purl.org/dc/dcmitype/StillImage" />
        <dc:title></dc:title>
      </cc:Work>
    </rdf:RDF>
  </metadata>
  <g
     id="layer1"
     transform="matrix(0.49999984,0,0,0.49999984,-141.02356,-218.08548)">
    <path
       id="path4138"
       d="m 449.03204,519.05065 -69.8644,-69.86436 c -4.0202,-4.02025 -10.5506,-4.02025 -14.5709,0 l -16.231,16.23101 12.2108,12.21076 c 1.9601,-0.94005 4.1502,-1.46009 6.4704,-1.46009 8.2805,0 15.0009,6.72042 15.0009,15.00094 0,2.32015 -0.53,4.51028 -1.4601,6.47041 l 20.0013,20.00125 c 1.9601,-0.94006 4.1502,-1.4601 6.4704,-1.4601 8.2805,0 15.0009,6.72042 15.0009,15.00094 0,8.28052 -6.7204,15.00094 -15.0009,15.00094 -8.2805,0 -15.0009,-6.72042 -15.0009,-15.00094 0,-2.32014 0.53,-4.51028 1.46,-6.4704 l -20.0012,-20.00125 c -0.48,0.23001 -0.9701,0.43002 -1.4701,0.61004 l 0,41.7126 c 5.8304,2.06013 10.0006,7.61048 10.0006,14.14089 0,8.28051 -6.7204,15.00093 -15.0009,15.00093 -8.2805,0 -15.001,-6.72042 -15.001,-15.00093 0,-6.53041 4.1703,-12.08076 10.0007,-14.14089 l 0,-41.7126 c -5.8304,-2.06013 -10.0007,-7.61048 -10.0007,-14.14089 0,-2.32014 0.5301,-4.51028 1.4601,-6.4704 l -12.2107,-12.21077 -46.2329,46.23289 c -4.0203,4.03026 -4.0203,10.55066 0,14.58092 l 69.8644,69.86436 c 4.0202,4.02025 10.5406,4.02025 14.5709,0 l 69.5343,-69.53434 c 4.0203,-4.03026 4.0203,-10.55066 0,-14.58092 z"
       style="fill:#ff5555" />
  </g>
</svg>
