<?xml version="1.0" encoding="UTF-8" standalone="no"?>
<svg
   xmlns:dc="http://purl.org/dc/elements/1.1/"
   xmlns:cc="http://creativecommons.org/ns#"
   xmlns:rdf="http://www.w3.org/1999/02/22-rdf-syntax-ns#"
   xmlns:svg="http://www.w3.org/2000/svg"
   xmlns="http://www.w3.org/2000/svg"
   xmlns:sodipodi="http://sodipodi.sourceforge.net/DTD/sodipodi-0.dtd"
   xmlns:inkscape="http://www.inkscape.org/namespaces/inkscape"
   viewBox="0 0 86 86.003403"
   id="svg2"
   version="1.1"
   inkscape:version="0.91 r13725"
   sodipodi:docname="inkscape.svg"
   width="86"
   height="86.003403"
   inkscape:export-filename="/home/nano/Sandbox/nano-me/img/inkscape.png"
   inkscape:export-xdpi="90"
   inkscape:export-ydpi="90">
  <metadata
     id="metadata123">
    <rdf:RDF>
      <cc:Work
         rdf:about="">
        <dc:format>image/svg+xml</dc:format>
        <dc:type
           rdf:resource="http://purl.org/dc/dcmitype/StillImage" />
        <dc:title></dc:title>
      </cc:Work>
    </rdf:RDF>
  </metadata>
  <sodipodi:namedview
     pagecolor="#ffffff"
     bordercolor="#666666"
     borderopacity="1"
     objecttolerance="10"
     gridtolerance="10"
     guidetolerance="10"
     inkscape:pageopacity="0"
     inkscape:pageshadow="2"
     inkscape:window-width="1600"
     inkscape:window-height="837"
     id="namedview121"
     showgrid="false"
     fit-margin-top="3"
     fit-margin-left="3"
     fit-margin-right="3"
     fit-margin-bottom="3"
     inkscape:zoom="4.9166667"
     inkscape:cx="15.016949"
     inkscape:cy="27.000001"
     inkscape:window-x="0"
     inkscape:window-y="32"
     inkscape:window-maximized="1"
     inkscape:current-layer="svg2" />
  <defs
     id="defs4">
    <linearGradient
       id="linearGradient3764"
       x1="1"
       x2="47"
       gradientUnits="userSpaceOnUse"
       gradientTransform="matrix(0,-1,1,0,-1.5e-6,47.999998)">
      <stop
         style="stop-color:#e1ddb1;stop-opacity:1"
         id="stop7" />
      <stop
         offset="1"
         style="stop-color:#e7e4c0;stop-opacity:1"
         id="stop9" />
    </linearGradient>
    <clipPath
       id="clipPath-756610889">
      <g
         transform="translate(0,-1004.3622)"
         id="g12">
        <path
           d="m -24,13 c 0,1.105 -0.672,2 -1.5,2 -0.828,0 -1.5,-0.895 -1.5,-2 0,-1.105 0.672,-2 1.5,-2 0.828,0 1.5,0.895 1.5,2 z"
           transform="matrix(15.333333,0,0,11.5,414.99999,878.8622)"
           style="fill:#1890d0"
           id="path14"
           inkscape:connector-curvature="0" />
      </g>
    </clipPath>
    <clipPath
       id="clipPath-772329708">
      <g
         transform="translate(0,-1004.3622)"
         id="g17">
        <path
           d="m -24,13 c 0,1.105 -0.672,2 -1.5,2 -0.828,0 -1.5,-0.895 -1.5,-2 0,-1.105 0.672,-2 1.5,-2 0.828,0 1.5,0.895 1.5,2 z"
           transform="matrix(15.333333,0,0,11.5,414.99999,878.8622)"
           style="fill:#1890d0"
           id="path19"
           inkscape:connector-curvature="0" />
      </g>
    </clipPath>
  </defs>
  <g
     id="g3451"
     transform="matrix(1.7022001,0,0,1.7022001,1.2977999,1.2977999)">
    <g
       id="g21">
      <path
         id="path23"
         style="opacity:0.05"
         d="m 36.31,5 c 5.859,4.062 9.688,10.831 9.688,18.5 0,12.426 -10.07,22.5 -22.5,22.5 -7.669,0 -14.438,-3.828 -18.5,-9.688 1.037,1.822 2.306,3.499 3.781,4.969 4.085,3.712 9.514,5.969 15.469,5.969 12.703,0 23,-10.298 23,-23 0,-5.954 -2.256,-11.384 -5.969,-15.469 C 39.81,7.306 38.132,6.037 36.31,5 Z m 4.969,3.781 c 3.854,4.113 6.219,9.637 6.219,15.719 0,12.703 -10.297,23 -23,23 -6.081,0 -11.606,-2.364 -15.719,-6.219 4.16,4.144 9.883,6.719 16.219,6.719 12.703,0 23,-10.298 23,-23 0,-6.335 -2.575,-12.06 -6.719,-16.219 z"
         inkscape:connector-curvature="0" />
      <path
         id="path25"
         style="opacity:0.1"
         d="m 41.28,8.781 c 3.712,4.085 5.969,9.514 5.969,15.469 0,12.703 -10.297,23 -23,23 -5.954,0 -11.384,-2.256 -15.469,-5.969 4.113,3.854 9.637,6.219 15.719,6.219 12.703,0 23,-10.298 23,-23 0,-6.081 -2.364,-11.606 -6.219,-15.719 z"
         inkscape:connector-curvature="0" />
      <path
         id="path27"
         style="opacity:0.2"
         d="M 31.25,2.375 C 39.865,5.529 46,13.792 46,23.505 c 0,12.426 -10.07,22.5 -22.5,22.5 -9.708,0 -17.971,-6.135 -21.12,-14.75 a 23,23 0 0 0 44.875,-7 23,23 0 0 0 -16,-21.875 z"
         inkscape:connector-curvature="0" />
    </g>
    <g
       id="g29">
      <path
         id="path31"
         style="fill:url(#linearGradient3764);fill-opacity:1"
         d="M 24,1 C 36.703,1 47,11.297 47,24 47,36.703 36.703,47 24,47 11.297,47 1,36.703 1,24 1,11.297 11.297,1 24,1 Z"
         inkscape:connector-curvature="0" />
    </g>
    <g
       id="g33">
      <g
         clip-path="url(#clipPath-756610889)"
         id="g35">
        <g
           id="g37"
           transform="translate(1,1)">
          <g
             id="g39"
             style="opacity:0.1">
            <!-- color: #e7e4c0 -->
            <g
               id="g41">
              <path
                 id="path43"
                 style="fill:#000000;fill-opacity:1;fill-rule:nonzero;stroke:none"
                 d="m 18.824,21.344 c 0,0 0.441,0.656 1.02,0.648 0.598,-0.004 1.172,-0.398 1.566,-0.816 0.422,-0.445 0.715,-1.656 0.715,-1.656 0.285,0.875 0.547,1.672 1.152,2.289 0.625,-0.293 0.914,-0.949 1.191,-1.527 0.84,0.672 1.645,1.402 2.082,2.344 0.254,-0.25 0.504,-0.637 0.539,-1.059 -0.031,-0.684 -0.18,-1.363 -0.34,-2.047 0.773,0.25 1.508,0.551 2.262,0.93 -0.191,-0.387 -0.336,-0.805 -0.41,-1.203 -2.043,-1.383 -2.492,-3.348 -3.836,-4.742 -1.695,2.438 -3.465,4.898 -5.941,6.84 m 0,0"
                 inkscape:connector-curvature="0" />
              <path
                 id="path45"
                 style="fill:#000000;fill-opacity:1;fill-rule:nonzero;stroke:none"
                 d="m 25.26,33 c 1.063,-0.168 1.832,-0.652 2.559,-1.508 -0.645,-0.207 -1.141,-0.656 -1.367,-1.336 0.176,-1.867 3.03,-2.082 4.543,-3.125 -3.879,-0.434 -6.04,-1.434 -8.355,-4.129 -1.164,0.195 -2.34,0.059 -3.492,-0.465 -1.609,0.254 -2.285,2.234 -4.148,2.496 0.695,0.18 1.648,0.266 1.668,0.625 1.926,-0.559 3.332,-0.129 5.199,0.563 -0.563,1.438 -1.629,2.344 -3.195,2.957 1.867,1.063 4.113,1.012 5.797,2.547 0.535,0.379 0.715,0.996 0.793,1.375 m 0,0"
                 inkscape:connector-curvature="0" />
              <path
                 id="path47"
                 style="fill:#000000;fill-opacity:1;fill-rule:nonzero;stroke:none"
                 d="m 36,24 c 0,0.551 -0.449,1 -1,1 -0.551,0 -1,-0.449 -1,-1 0,-0.551 0.449,-1 1,-1 0.551,0 1,0.449 1,1 m 0,0"
                 inkscape:connector-curvature="0" />
              <path
                 id="path49"
                 style="fill:#000000;fill-opacity:1;fill-rule:nonzero;stroke:none"
                 d="m 34.395,24.22 -9.914,-11.84 0.957,-0.637 9.945,11.871 m -0.988,0.605"
                 inkscape:connector-curvature="0" />
              <path
                 id="path51"
                 style="fill:#000000;fill-opacity:1;fill-rule:nonzero;stroke:none"
                 d="m 17,30 c 0,0.551 -0.449,1 -1,1 -0.551,0 -1,-0.449 -1,-1 0,-0.551 0.449,-1 1,-1 0.551,0 1,0.449 1,1 m 0,0"
                 inkscape:connector-curvature="0" />
              <path
                 id="path53"
                 style="fill:#000000;fill-opacity:1;fill-rule:nonzero;stroke:none"
                 d="m 24,33 c 0,0.551 -0.449,1 -1,1 -0.551,0 -1,-0.449 -1,-1 0,-0.551 0.449,-1 1,-1 0.551,0 1,0.449 1,1 m 0,0"
                 inkscape:connector-curvature="0" />
              <path
                 id="path55"
                 style="fill:#000000;fill-opacity:1;fill-rule:nonzero;stroke:none"
                 d="m 22,36 c 0,0.551 -0.449,1 -1,1 -0.551,0 -1,-0.449 -1,-1 0,-0.551 0.449,-1 1,-1 0.551,0 1,0.449 1,1 m 0,0"
                 inkscape:connector-curvature="0" />
              <path
                 id="path57"
                 style="fill:#000000;fill-opacity:1;fill-rule:nonzero;stroke:none"
                 d="m 26,36 c 0,0.551 -0.449,1 -1,1 -0.551,0 -1,-0.449 -1,-1 0,-0.551 0.449,-1 1,-1 0.551,0 1,0.449 1,1 m 0,0"
                 inkscape:connector-curvature="0" />
              <path
                 id="path59"
                 style="fill:#000000;fill-opacity:1;fill-rule:nonzero;stroke:none"
                 d="m 20,27 c 0,0.551 -0.449,1 -1,1 -0.551,0 -1,-0.449 -1,-1 0,-0.551 0.449,-1 1,-1 0.551,0 1,0.449 1,1 m 0,0"
                 inkscape:connector-curvature="0" />
              <path
                 id="path61"
                 style="fill:#000000;fill-opacity:1;fill-rule:nonzero;stroke:none"
                 d="m 23.02,33.586 -7.324,-3.02 0.617,-1.141 7.266,3.219 m -0.559,0.945"
                 inkscape:connector-curvature="0" />
              <path
                 id="path63"
                 style="fill:#000000;fill-opacity:1;fill-rule:nonzero;stroke:none"
                 d="m 21.355,36.441 2.313,-3.336 -0.953,-0.367 -2.215,3.066 m 0.855,0.637"
                 inkscape:connector-curvature="0" />
              <path
                 id="path65"
                 style="fill:#000000;fill-opacity:1;fill-rule:nonzero;stroke:none"
                 d="m 20.859,36.582 4.465,0.039 -0.078,-0.898 -4.375,0.004 m -0.012,0.855"
                 inkscape:connector-curvature="0" />
              <path
                 id="path67"
                 style="fill:#000000;fill-opacity:1;fill-rule:nonzero;stroke:none"
                 d="m 16.215,30.539 3.367,-3.559 -1.031,-0.383 -3.191,3.309 m 0.855,0.633"
                 inkscape:connector-curvature="0" />
              <path
                 id="path69"
                 style="fill:#000000;fill-opacity:1;fill-rule:nonzero;stroke:none"
                 d="m 19.32,26.57 -6.379,-0.977 -0.383,1.031 6.129,0.801 M 19.32,26.57"
                 inkscape:connector-curvature="0" />
              <path
                 id="path71"
                 style="fill:#000000;fill-opacity:1;fill-rule:nonzero;stroke:none"
                 d="M 12.512,25.609 24.7,11.453 25.337,12.41 13.118,26.601 m -0.605,-0.992"
                 inkscape:connector-curvature="0" />
              <path
                 id="path73"
                 style="fill:#000000;fill-opacity:1;fill-rule:nonzero;stroke:none"
                 d="m 26,12 c 0,0.551 -0.449,1 -1,1 -0.551,0 -1,-0.449 -1,-1 0,-0.551 0.449,-1 1,-1 0.551,0 1,0.449 1,1 m 0,0"
                 inkscape:connector-curvature="0" />
              <path
                 id="path75"
                 style="fill:#000000;fill-opacity:1;fill-rule:nonzero;stroke:none"
                 d="m 14,26 c 0,0.551 -0.449,1 -1,1 -0.551,0 -1,-0.449 -1,-1 0,-0.551 0.449,-1 1,-1 0.551,0 1,0.449 1,1 m 0,0"
                 inkscape:connector-curvature="0" />
            </g>
          </g>
        </g>
      </g>
    </g>
    <g
       id="g77">
      <g
         clip-path="url(#clipPath-772329708)"
         id="g79">
        <!-- color: #e7e4c0 -->
        <g
           id="g81">
          <path
             id="path83"
             style="fill:#7c6f7c;fill-opacity:1;fill-rule:nonzero;stroke:none"
             d="m 18.824,21.344 c 0,0 0.441,0.656 1.02,0.648 0.598,-0.004 1.172,-0.398 1.566,-0.816 0.422,-0.445 0.715,-1.656 0.715,-1.656 0.285,0.875 0.547,1.672 1.152,2.289 0.625,-0.293 0.914,-0.949 1.191,-1.527 0.84,0.672 1.645,1.402 2.082,2.344 0.254,-0.25 0.504,-0.637 0.539,-1.059 -0.031,-0.684 -0.18,-1.363 -0.34,-2.047 0.773,0.25 1.508,0.551 2.262,0.93 -0.191,-0.387 -0.336,-0.805 -0.41,-1.203 -2.043,-1.383 -2.492,-3.348 -3.836,-4.742 -1.695,2.438 -3.465,4.898 -5.941,6.84 m 0,0"
             inkscape:connector-curvature="0" />
          <path
             id="path85"
             style="fill:#7c6f7c;fill-opacity:1;fill-rule:nonzero;stroke:none"
             d="m 25.26,33 c 1.063,-0.168 1.832,-0.652 2.559,-1.508 -0.645,-0.207 -1.141,-0.656 -1.367,-1.336 0.176,-1.867 3.03,-2.082 4.543,-3.125 -3.879,-0.434 -6.04,-1.434 -8.355,-4.129 -1.164,0.195 -2.34,0.059 -3.492,-0.465 -1.609,0.254 -2.285,2.234 -4.148,2.496 0.695,0.18 1.648,0.266 1.668,0.625 1.926,-0.559 3.332,-0.129 5.199,0.563 -0.563,1.438 -1.629,2.344 -3.195,2.957 1.867,1.063 4.113,1.012 5.797,2.547 0.535,0.379 0.715,0.996 0.793,1.375 m 0,0"
             inkscape:connector-curvature="0" />
          <path
             id="path87"
             style="fill:#2c7ccc;fill-opacity:1;fill-rule:nonzero;stroke:none"
             d="m 36,24 c 0,0.551 -0.449,1 -1,1 -0.551,0 -1,-0.449 -1,-1 0,-0.551 0.449,-1 1,-1 0.551,0 1,0.449 1,1 m 0,0"
             inkscape:connector-curvature="0" />
          <path
             id="path89"
             style="fill:#2c7ccc;fill-opacity:1;fill-rule:nonzero;stroke:none"
             d="m 34.395,24.22 -9.914,-11.84 0.957,-0.637 9.945,11.871 m -0.988,0.605"
             inkscape:connector-curvature="0" />
          <path
             id="path91"
             style="fill:#dc3d27;fill-opacity:1;fill-rule:nonzero;stroke:none"
             d="m 17,30 c 0,0.551 -0.449,1 -1,1 -0.551,0 -1,-0.449 -1,-1 0,-0.551 0.449,-1 1,-1 0.551,0 1,0.449 1,1 m 0,0"
             inkscape:connector-curvature="0" />
          <path
             id="path93"
             style="fill:#dc3d27;fill-opacity:1;fill-rule:nonzero;stroke:none"
             d="m 24,33 c 0,0.551 -0.449,1 -1,1 -0.551,0 -1,-0.449 -1,-1 0,-0.551 0.449,-1 1,-1 0.551,0 1,0.449 1,1 m 0,0"
             inkscape:connector-curvature="0" />
          <path
             id="path95"
             style="fill:#dc3d27;fill-opacity:1;fill-rule:nonzero;stroke:none"
             d="m 22,36 c 0,0.551 -0.449,1 -1,1 -0.551,0 -1,-0.449 -1,-1 0,-0.551 0.449,-1 1,-1 0.551,0 1,0.449 1,1 m 0,0"
             inkscape:connector-curvature="0" />
          <path
             id="path97"
             style="fill:#dc3d27;fill-opacity:1;fill-rule:nonzero;stroke:none"
             d="m 26,36 c 0,0.551 -0.449,1 -1,1 -0.551,0 -1,-0.449 -1,-1 0,-0.551 0.449,-1 1,-1 0.551,0 1,0.449 1,1 m 0,0"
             inkscape:connector-curvature="0" />
          <path
             id="path99"
             style="fill:#dc3d27;fill-opacity:1;fill-rule:nonzero;stroke:none"
             d="m 20,27 c 0,0.551 -0.449,1 -1,1 -0.551,0 -1,-0.449 -1,-1 0,-0.551 0.449,-1 1,-1 0.551,0 1,0.449 1,1 m 0,0"
             inkscape:connector-curvature="0" />
          <path
             id="path101"
             style="fill:#dc3d27;fill-opacity:1;fill-rule:nonzero;stroke:none"
             d="m 23.02,33.586 -7.324,-3.02 0.617,-1.141 7.266,3.219 m -0.559,0.945"
             inkscape:connector-curvature="0" />
          <path
             id="path103"
             style="fill:#dc3d27;fill-opacity:1;fill-rule:nonzero;stroke:none"
             d="m 21.355,36.441 2.313,-3.336 -0.953,-0.367 -2.215,3.066 m 0.855,0.637"
             inkscape:connector-curvature="0" />
          <path
             id="path105"
             style="fill:#dc3d27;fill-opacity:1;fill-rule:nonzero;stroke:none"
             d="m 20.859,36.582 4.465,0.039 -0.078,-0.898 -4.375,0.004 m -0.012,0.855"
             inkscape:connector-curvature="0" />
          <path
             id="path107"
             style="fill:#dc3d27;fill-opacity:1;fill-rule:nonzero;stroke:none"
             d="m 16.215,30.539 3.367,-3.559 -1.031,-0.383 -3.191,3.309 m 0.855,0.633"
             inkscape:connector-curvature="0" />
          <path
             id="path109"
             style="fill:#dc3d27;fill-opacity:1;fill-rule:nonzero;stroke:none"
             d="m 19.32,26.57 -6.379,-0.977 -0.383,1.031 6.129,0.801 M 19.32,26.57"
             inkscape:connector-curvature="0" />
          <path
             id="path111"
             style="fill:#289a59;fill-opacity:1;fill-rule:nonzero;stroke:none"
             d="M 12.512,25.609 24.7,11.453 25.337,12.41 13.118,26.601 m -0.605,-0.992"
             inkscape:connector-curvature="0" />
          <path
             id="path113"
             style="fill:#2c7ccc;fill-opacity:1;fill-rule:nonzero;stroke:none"
             d="m 26,12 c 0,0.551 -0.449,1 -1,1 -0.551,0 -1,-0.449 -1,-1 0,-0.551 0.449,-1 1,-1 0.551,0 1,0.449 1,1 m 0,0"
             inkscape:connector-curvature="0" />
          <path
             id="path115"
             style="fill:#289a59;fill-opacity:1;fill-rule:nonzero;stroke:none"
             d="m 14,26 c 0,0.551 -0.449,1 -1,1 -0.551,0 -1,-0.449 -1,-1 0,-0.551 0.449,-1 1,-1 0.551,0 1,0.449 1,1 m 0,0"
             inkscape:connector-curvature="0" />
        </g>
      </g>
    </g>
    <g
       id="g117">
      <path
         id="path119"
         style="opacity:0.1"
         d="m 40.03,7.531 c 3.712,4.084 5.969,9.514 5.969,15.469 0,12.703 -10.297,23 -23,23 C 17.045,46 11.615,43.744 7.53,40.031 11.708,44.322 17.54,47 23.999,47 c 12.703,0 23,-10.298 23,-23 0,-6.462 -2.677,-12.291 -6.969,-16.469 z"
         inkscape:connector-curvature="0" />
    </g>
  </g>
</svg>
