<?xml version="1.0" encoding="UTF-8" standalone="no"?>
<svg
   xmlns:dc="http://purl.org/dc/elements/1.1/"
   xmlns:cc="http://creativecommons.org/ns#"
   xmlns:rdf="http://www.w3.org/1999/02/22-rdf-syntax-ns#"
   xmlns:svg="http://www.w3.org/2000/svg"
   xmlns="http://www.w3.org/2000/svg"
   width="90"
   height="87.070084"
   viewBox="0 0 90 87.070083"
   id="svg4166"
   version="1.1">
  <defs
     id="defs4168" />
  <metadata
     id="metadata4171">
    <rdf:RDF>
      <cc:Work
         rdf:about="">
        <dc:format>image/svg+xml</dc:format>
        <dc:type
           rdf:resource="http://purl.org/dc/dcmitype/StillImage" />
        <dc:title></dc:title>
      </cc:Work>
    </rdf:RDF>
  </metadata>
  <g
     id="layer1"
     transform="matrix(0.50000001,0,0,0.50000001,-141.02362,-219.55552)">
    <g
       id="g4988"
       transform="matrix(1.6995725,0,0,1.6995725,2072.3705,-66.131018)">
      <path
         id="path4808"
         d="m -1041.5339,324.46044 c -8.335,11.98 -7.2974,27.566 -0.9302,40.295 0.1514,0.30518 0.3101,0.60546 0.4663,0.90576 0.1001,0.19043 0.1941,0.38574 0.2979,0.57373 0.059,0.11225 0.1245,0.22216 0.1855,0.32959 0.1086,0.20263 0.2197,0.39551 0.332,0.59326 0.1978,0.34912 0.4004,0.6958 0.608,1.0425 0.1147,0.19042 0.2282,0.38085 0.3466,0.57128 0.2295,0.37109 0.4651,0.7373 0.7056,1.1035 0.1001,0.15625 0.1978,0.3125 0.3003,0.46386 0.332,0.49561 0.6714,0.98877 1.0217,1.4746 0.01,0.0125 0.018,0.0269 0.029,0.039 0.055,0.0781 0.116,0.15381 0.1722,0.23194 0.3027,0.41747 0.6152,0.83007 0.9314,1.2378 0.116,0.14892 0.2331,0.29785 0.3503,0.44677 0.282,0.35401 0.5689,0.70558 0.8606,1.0571 0.1086,0.13184 0.2185,0.26366 0.3284,0.39306 0.3918,0.46143 0.791,0.92041 1.1987,1.3696 0.01,0.007 0.017,0.0171 0.024,0.0244 0.017,0.0195 0.032,0.0317 0.046,0.0512 0.398,0.43457 0.8057,0.85937 1.2183,1.2842 0.1282,0.13184 0.2588,0.26368 0.3906,0.39308 0.3198,0.32226 0.6445,0.63965 0.9729,0.95458 0.1331,0.12695 0.2649,0.25635 0.398,0.37842 0.4382,0.4126 0.8813,0.81787 1.333,1.2134 0.01,0.007 0.013,0.0125 0.021,0.0171 0.077,0.0684 0.1563,0.13184 0.232,0.19775 0.3979,0.34424 0.8032,0.68604 1.2109,1.023 0.166,0.13428 0.3344,0.26612 0.5017,0.40039 0.3332,0.26611 0.6701,0.52979 1.0095,0.78858 0.1794,0.13672 0.3589,0.27343 0.5395,0.41016 0.3748,0.27587 0.752,0.54687 1.1328,0.81299 0.1392,0.10012 0.2735,0.19775 0.4126,0.29296 0.039,0.0269 0.074,0.0537 0.1135,0.0806 0.3614,0.24902 0.7312,0.48827 1.0999,0.72754 0.1587,0.105 0.3162,0.21483 0.4761,0.31737 0.5664,0.35889 1.1414,0.7129 1.7224,1.0547 0.1575,0.0904 0.3174,0.17822 0.4761,0.26856 0.4272,0.24658 0.8569,0.48828 1.2927,0.7251 0.2356,0.12695 0.4773,0.24658 0.7153,0.36865 0.3076,0.16113 0.6128,0.3247 0.9253,0.48095 0.071,0.0343 0.144,0.0684 0.2136,0.1025 0.1258,0.061 0.2527,0.11963 0.3784,0.18311 0.4846,0.23194 0.9729,0.45899 1.4661,0.67872 0.105,0.0464 0.2063,0.0928 0.3101,0.13916 0.5652,0.24657 1.1352,0.48339 1.7102,0.71045 0.1379,0.0561 0.2771,0.10987 0.4163,0.16356 0.5322,0.20509 1.0718,0.40773 1.6138,0.59815 0.068,0.0244 0.1342,0.0464 0.2026,0.0707 0.5945,0.20753 1.1951,0.40039 1.7993,0.58838 0.144,0.0415 0.2893,0.0879 0.4346,0.1294 0.6152,0.18555 1.2232,0.40771 1.8579,0.5249 40.30996,7.3511 52.01896,-24.224 52.01896,-24.224 -9.834,12.812 -27.29,16.191 -43.829,12.429 -0.62626,-0.1416 -1.23406,-0.33691 -1.84566,-0.51758 -0.1551,-0.0464 -0.3077,-0.0927 -0.4603,-0.13916 -0.5969,-0.1831 -1.189,-0.37597 -1.7773,-0.57861 -0.081,-0.0292 -0.1623,-0.0586 -0.2441,-0.0879 -0.5273,-0.18555 -1.0486,-0.38086 -1.5674,-0.58105 -0.1465,-0.0586 -0.293,-0.11475 -0.4395,-0.17334 -0.5688,-0.22461 -1.134,-0.45899 -1.6919,-0.70312 -0.1147,-0.0489 -0.2246,-0.10013 -0.3381,-0.14894 -0.4797,-0.21728 -0.9546,-0.437 -1.427,-0.66406 -0.1367,-0.0659 -0.2734,-0.12939 -0.4126,-0.19775 -0.371,-0.181 -0.738,-0.374 -1.104,-0.562 -0.245,-0.129 -0.494,-0.251 -0.737,-0.386 -0.447,-0.239 -0.886,-0.488 -1.323,-0.742 -0.148,-0.083 -0.298,-0.163 -0.447,-0.249 -0.581,-0.342 -1.155,-0.696 -1.723,-1.055 -0.157,-0.1 -0.31,-0.207 -0.465,-0.31 -0.412,-0.266 -0.822,-0.537 -1.226,-0.815 -0.134,-0.091 -0.263,-0.188 -0.395,-0.278 -0.39,-0.276 -0.776,-0.555 -1.159,-0.838 -0.174,-0.129 -0.345,-0.259 -0.514,-0.388 -0.351,-0.269 -0.7,-0.54 -1.046,-0.818 -0.1562,-0.1245 -0.3125,-0.24902 -0.4663,-0.37354 -0.4395,-0.36132 -0.874,-0.7251 -1.3025,-1.0986 -0.045,-0.039 -0.094,-0.0781 -0.1428,-0.11963 -0.4639,-0.40771 -0.9192,-0.8252 -1.3696,-1.2451 -0.1306,-0.1245 -0.2576,-0.24659 -0.3858,-0.3711 -0.3332,-0.31738 -0.6616,-0.6372 -0.9839,-0.96435 -0.1294,-0.1294 -0.2588,-0.25635 -0.3857,-0.38575 -0.4102,-0.41991 -0.813,-0.84473 -1.2073,-1.2768 -0.019,-0.022 -0.04,-0.0415 -0.06,-0.0635 -0.4174,-0.45655 -0.8252,-0.92285 -1.2244,-1.394 -0.1086,-0.12939 -0.2136,-0.2539 -0.321,-0.38085 -0.2979,-0.35889 -0.5933,-0.72266 -0.8814,-1.0889 -0.108,-0.132 -0.216,-0.267 -0.323,-0.403 -0.347,-0.45 -0.686,-0.899 -1.018,-1.355 -9.1823,-12.525 -12.481,-29.8 -5.142,-43.987"
         style="fill:#0868ac;fill-rule:nonzero" />
      <path
         id="path4810"
         d="m -1015.6604,314.36744 c -6.0278,8.6743 -5.7007,20.286 -0.9985,29.46 0.7885,1.5381 1.6748,3.0298 2.666,4.4507 0.9033,1.2939 1.9043,2.8345 3.103,3.8745 0.4345,0.47852 0.8886,0.94482 1.3525,1.4038 0.1171,0.11963 0.2368,0.23438 0.3564,0.35157 0.4504,0.43701 0.9082,0.8667 1.3818,1.2842 0.019,0.0146 0.037,0.0341 0.056,0.0489 0,0.005 0.01,0.007 0.013,0.0125 0.5237,0.45899 1.0644,0.90089 1.6138,1.3354 0.1221,0.0927 0.2429,0.19044 0.3662,0.28565 0.5506,0.42237 1.1121,0.8374 1.6882,1.2329 0.017,0.0125 0.032,0.0244 0.049,0.0366 0.2539,0.17578 0.5127,0.33936 0.7703,0.50781 0.1232,0.0806 0.2404,0.16602 0.365,0.2417 0.4113,0.26367 0.8276,0.52002 1.2512,0.7666 0.06,0.0366 0.1183,0.0684 0.177,0.1025 0.365,0.20995 0.7348,0.41747 1.106,0.61767 0.1293,0.0732 0.2612,0.13672 0.39302,0.20508 0.25635,0.13427 0.5127,0.271 0.77392,0.40039 0.039,0.0195 0.0794,0.0366 0.11712,0.0538 0.53101,0.26122 1.0669,0.5127 1.6138,0.75195 0.11712,0.0513 0.23804,0.0976 0.35644,0.14648 0.43701,0.18555 0.87891,0.36622 1.3232,0.53712 0.18799,0.0708 0.37841,0.13916 0.5664,0.20751 0.40284,0.14892 0.80689,0.28565 1.2146,0.42236 0.18432,0.0586 0.365,0.11963 0.54932,0.17579 0.57982,0.18066 1.1523,0.40771 1.7566,0.50781 31.123,5.1562 38.308,-18.806 38.308,-18.806 -6.477,9.3286 -19.02,13.779 -32.405,10.305 -0.59449,-0.15625 -1.1804,-0.32715 -1.7627,-0.51027 -0.17822,-0.0537 -0.35279,-0.11225 -0.52979,-0.17088 -0.41381,-0.13429 -0.82519,-0.27589 -1.2329,-0.42482 -0.18676,-0.0684 -0.37352,-0.13671 -0.55664,-0.20751 -0.44678,-0.1709 -0.88868,-0.34912 -1.3269,-0.53467 -0.11962,-0.0513 -0.24049,-0.0976 -0.35768,-0.15137 -0.54931,-0.23926 -1.0901,-0.49072 -1.6235,-0.7544 -0.27466,-0.13427 -0.54444,-0.27587 -0.81421,-0.41503 -0.15625,-0.0805 -0.31372,-0.16113 -0.46998,-0.2417 -0.34668,-0.18799 -0.69091,-0.3833 -1.0303,-0.58105 -0.0805,-0.0464 -0.16479,-0.0904 -0.24658,-0.13917 -0.42115,-0.24658 -0.83619,-0.50048 -1.2476,-0.76171 -0.12695,-0.0806 -0.24902,-0.16846 -0.37598,-0.25147 -0.271,-0.17578 -0.54199,-0.354 -0.8081,-0.53467 -0.57374,-0.39551 -1.1316,-0.81055 -1.6821,-1.2305 -0.12695,-0.10013 -0.25386,-0.19775 -0.37846,-0.29785 -5.859,-4.626 -10.503,-10.947 -12.711,-18.115 -2.314,-7.434 -1.815,-15.779 2.194,-22.551"
         style="fill:#0868ac;fill-rule:nonzero" />
      <path
         id="path4812"
         d="m -993.8994,306.82644 c -3.5535,5.2295 -3.9026,11.724 -1.4368,17.5 2.6001,6.1304 7.9285,10.94 14.147,13.22 0.25635,0.0953 0.5127,0.18066 0.77271,0.26855 0.1135,0.0342 0.22582,0.0733 0.34058,0.10737 0.36621,0.11475 0.72998,0.24903 1.1084,0.31983 17.185,3.3203 21.846,-8.8184 23.087,-10.605 -4.0832,5.8789 -10.945,7.29 -19.364,5.2466 -0.665,-0.162 -1.396,-0.402 -2.037,-0.629 -0.822,-0.293 -1.632,-0.627 -2.419,-1.005 -1.495,-0.718 -2.92,-1.59 -4.241,-2.588 -7.534,-5.716 -12.214,-16.621 -7.298,-25.502"
         style="fill:#0868ac;fill-rule:nonzero" />
    </g>
  </g>
</svg>
