<?xml version="1.0" encoding="UTF-8" standalone="no"?>
<svg
   xmlns:dc="http://purl.org/dc/elements/1.1/"
   xmlns:cc="http://creativecommons.org/ns#"
   xmlns:rdf="http://www.w3.org/1999/02/22-rdf-syntax-ns#"
   xmlns:svg="http://www.w3.org/2000/svg"
   xmlns="http://www.w3.org/2000/svg"
   width="86"
   height="96.209351"
   viewBox="0 0 86 96.20935"
   id="svg4269"
   version="1.1">
  <defs
     id="defs4271" />
  <metadata
     id="metadata4274">
    <rdf:RDF>
      <cc:Work
         rdf:about="">
        <dc:format>image/svg+xml</dc:format>
        <dc:type
           rdf:resource="http://purl.org/dc/dcmitype/StillImage" />
        <dc:title></dc:title>
      </cc:Work>
    </rdf:RDF>
  </metadata>
  <g
     id="layer1"
     transform="matrix(0.5,0,0,0.5,-103.75241,-205.53917)">
    <g
       id="g4847"
       transform="matrix(1.3239827,0,0,1.3239827,-69.17187,-193.57871)">
      <g
         transform="translate(2.5000018,-2.9999943)"
         id="g4841">
        <g
           id="g3373"
           transform="matrix(1.25,0,0,-1.25,271.41607,600.49705)">
          <path
             d="m 0,0 c -1.46,0 -2.912,0.381 -4.19,1.121 l -13.338,7.892 c -1.991,1.114 -1.019,1.509 -0.362,1.738 2.657,0.922 3.195,1.135 6.031,2.743 0.295,0.167 0.687,0.103 0.992,-0.076 L -0.62,7.335 c 0.371,-0.206 0.895,-0.206 1.237,0 l 39.95,23.058 c 0.372,0.212 0.61,0.64 0.61,1.081 l 0,46.104 c 0,0.451 -0.238,0.872 -0.62,1.101 L 0.624,101.717 c -0.369,0.216 -0.859,0.216 -1.231,0 L -40.53,78.672 c -0.388,-0.222 -0.634,-0.657 -0.634,-1.094 l 0,-46.104 c 0,-0.441 0.246,-0.859 0.63,-1.068 l 10.944,-6.323 c 5.938,-2.969 9.574,0.528 9.574,4.041 l 0,45.519 c 0,0.644 0.517,1.151 1.161,1.151 l 5.065,0 c 0.634,0 1.158,-0.507 1.158,-1.151 l 0,-45.519 c 0,-7.925 -4.316,-12.47 -11.829,-12.47 -2.309,0 -4.127,0 -9.202,2.501 l -10.476,6.031 c -2.588,1.496 -4.19,4.293 -4.19,7.288 l 0,46.104 c 0,2.995 1.602,5.792 4.19,7.281 l 39.949,23.085 c 2.528,1.429 5.888,1.429 8.396,0 L 44.153,84.859 c 2.587,-1.496 4.196,-4.286 4.196,-7.281 l 0,-46.104 c 0,-2.995 -1.609,-5.782 -4.196,-7.288 L 4.206,1.121 C 2.929,0.381 1.48,0 0,0"
             style="fill:#689f63;fill-opacity:1;fill-rule:nonzero;stroke:none"
             id="path3375" />
        </g>
        <g
           id="g3377"
           transform="matrix(1.25,0,0,-1.25,286.84132,560.79355)">
          <path
             d="m 0,0 c -17.482,0 -21.144,8.024 -21.144,14.755 0,0.64 0.514,1.151 1.154,1.151 l 5.165,0 c 0.577,0 1.058,-0.415 1.148,-0.978 0.78,-5.258 3.105,-7.912 13.677,-7.912 8.416,0 11.999,1.904 11.999,6.369 0,2.574 -1.016,4.485 -14.095,5.766 -10.931,1.081 -17.692,3.496 -17.692,12.24 0,8.061 6.794,12.868 18.186,12.868 12.798,0 19.131,-4.442 19.933,-13.972 0.03,-0.329 -0.086,-0.644 -0.305,-0.889 -0.219,-0.229 -0.524,-0.369 -0.846,-0.369 l -5.185,0 c -0.537,0 -1.012,0.382 -1.121,0.903 -1.244,5.533 -4.269,7.301 -12.476,7.301 -9.189,0 -10.257,-3.201 -10.257,-5.6 0,-2.906 1.26,-3.751 13.667,-5.393 C 14.085,24.617 19.917,22.319 19.917,13.69 19.917,4.986 12.659,0 0,0"
             style="fill:#689f63;fill-opacity:1;fill-rule:nonzero;stroke:none"
             id="path3379" />
        </g>
      </g>
    </g>
  </g>
</svg>
