<?xml version="1.0" encoding="UTF-8" standalone="no"?>
<svg
   xmlns:dc="http://purl.org/dc/elements/1.1/"
   xmlns:cc="http://creativecommons.org/ns#"
   xmlns:rdf="http://www.w3.org/1999/02/22-rdf-syntax-ns#"
   xmlns:svg="http://www.w3.org/2000/svg"
   xmlns="http://www.w3.org/2000/svg"
   xmlns:sodipodi="http://sodipodi.sourceforge.net/DTD/sodipodi-0.dtd"
   xmlns:inkscape="http://www.inkscape.org/namespaces/inkscape"
   version="1.1"
   id="svg5339"
   viewBox="0 0 86.000001 86.000001"
   height="86"
   width="86"
   inkscape:version="0.91 r13725"
   sodipodi:docname="ubuntu.svg">
  <sodipodi:namedview
     pagecolor="#ffffff"
     bordercolor="#666666"
     borderopacity="1"
     objecttolerance="10"
     gridtolerance="10"
     guidetolerance="10"
     inkscape:pageopacity="0"
     inkscape:pageshadow="2"
     inkscape:window-width="1600"
     inkscape:window-height="837"
     id="namedview9"
     showgrid="false"
     fit-margin-top="3"
     fit-margin-left="3"
     fit-margin-right="3"
     fit-margin-bottom="3"
     inkscape:zoom="2.6033623"
     inkscape:cx="-0.84118622"
     inkscape:cy="48.325996"
     inkscape:window-x="0"
     inkscape:window-y="32"
     inkscape:window-maximized="1"
     inkscape:current-layer="svg5339" />
  <defs
     id="defs5341" />
  <metadata
     id="metadata5344">
    <rdf:RDF>
      <cc:Work
         rdf:about="">
        <dc:format>image/svg+xml</dc:format>
        <dc:type
           rdf:resource="http://purl.org/dc/dcmitype/StillImage" />
        <dc:title></dc:title>
      </cc:Work>
    </rdf:RDF>
  </metadata>
  <g
     transform="matrix(0.88249569,0,0,0.88249569,-334.38708,-434.62177)"
     id="layer1">
    <g
       transform="translate(208.57143,237.14286)"
       id="g6235">
      <circle
         style="fill:#dd4814"
         cx="219.06474"
         cy="304.07425"
         r="45.326"
         id="circle6196" />
      <path
         style="fill:#ffffff"
         d="m 188.24481,298.02123 c -3.344,0 -6.053,2.709 -6.053,6.053 0,3.342 2.709,6.051 6.053,6.051 3.343,0 6.052,-2.709 6.052,-6.051 -0.001,-3.344 -2.71,-6.053 -6.052,-6.053 z m 43.207,27.504 c -2.895,1.672 -3.887,5.371 -2.215,8.264 1.67,2.895 5.369,3.887 8.265,2.215 2.895,-1.67 3.887,-5.369 2.215,-8.264 -1.671,-2.892 -5.372,-3.885 -8.265,-2.215 z m -30.062,-21.451 c 0,-5.98 2.971,-11.264 7.516,-14.463 l -4.424,-7.41 c -5.295,3.539 -9.233,8.947 -10.871,15.281 1.91,1.559 3.133,3.932 3.133,6.592 0,2.658 -1.223,5.031 -3.133,6.59 1.636,6.336 5.574,11.744 10.871,15.283 l 4.424,-7.412 c -4.546,-3.197 -7.516,-8.48 -7.516,-14.461 z m 17.675,-17.678 c 9.234,0 16.812,7.08 17.605,16.109 l 8.623,-0.127 c -0.425,-6.666 -3.337,-12.65 -7.812,-17.051 -2.301,0.869 -4.959,0.736 -7.256,-0.588 -2.301,-1.328 -3.744,-3.568 -4.139,-6 -2.236,-0.617 -4.59,-0.955 -7.023,-0.955 -4.184,0 -8.139,0.982 -11.65,2.721 l 4.205,7.535 c 2.264,-1.052 4.787,-1.644 7.447,-1.644 z m 0,35.354 c -2.66,0 -5.184,-0.592 -7.445,-1.645 l -4.204,7.535 c 3.512,1.74 7.467,2.723 11.649,2.723 2.435,0 4.787,-0.338 7.023,-0.957 0.395,-2.432 1.838,-4.67 4.139,-6 2.299,-1.326 4.955,-1.457 7.256,-0.588 4.476,-4.4 7.387,-10.385 7.812,-17.051 l -8.625,-0.127 c -0.794,9.032 -8.37,16.11 -17.605,16.11 z m 12.385,-39.131 c 2.896,1.672 6.595,0.682 8.265,-2.213 1.672,-2.895 0.682,-6.594 -2.213,-8.266 -2.896,-1.67 -6.595,-0.678 -8.267,2.217 -1.67,2.893 -0.677,6.592 2.215,8.262 z"
         id="path6198"
         inkscape:connector-curvature="0" />
    </g>
  </g>
</svg>
